G04*
G04 #@! TF.GenerationSoftware,Altium Limited,Altium Designer,20.0.1 (14)*
G04*
G04 Layer_Color=65535*
%FSLAX44Y44*%
%MOMM*%
G71*
G01*
G75*
%ADD10C,0.2000*%
%ADD11C,0.2540*%
%ADD12C,0.1270*%
%ADD13C,0.6350*%
G36*
X-39902Y96428D02*
X-38107D01*
Y95979D01*
Y95531D01*
Y95082D01*
X-39004D01*
Y94634D01*
X-41248D01*
Y95082D01*
X-42593D01*
Y94634D01*
Y94185D01*
Y93736D01*
Y93288D01*
X-43042D01*
Y92839D01*
X-44388D01*
Y92390D01*
X-47080D01*
Y91942D01*
X-49772D01*
Y91493D01*
X-51566D01*
Y91045D01*
X-53809D01*
Y90596D01*
X-54707D01*
Y90147D01*
X-56501D01*
Y89699D01*
X-57398D01*
Y89250D01*
X-58744D01*
Y88801D01*
X-59641D01*
Y88353D01*
X-60539D01*
Y87904D01*
X-60987D01*
Y87456D01*
X-61885D01*
Y87007D01*
X-62333D01*
Y86558D01*
X-63231D01*
Y86110D01*
X-63679D01*
Y85661D01*
X-64128D01*
Y85212D01*
X-64577D01*
Y84764D01*
X-65025D01*
Y84315D01*
X-65474D01*
Y83867D01*
Y83418D01*
X-65922D01*
Y82969D01*
X-66371D01*
Y82521D01*
X-66820D01*
Y82072D01*
X-67268D01*
Y81623D01*
X-67717D01*
Y81175D01*
Y80726D01*
X-68165D01*
Y80277D01*
Y79829D01*
X-68614D01*
Y79380D01*
X-69063D01*
Y78931D01*
Y78483D01*
Y78034D01*
X-69511D01*
Y77586D01*
Y77137D01*
X-69960D01*
Y76688D01*
Y76240D01*
Y75791D01*
X-70409D01*
Y75342D01*
Y74894D01*
Y74445D01*
Y73997D01*
X-70857D01*
Y73548D01*
Y73099D01*
Y72651D01*
Y72202D01*
Y71753D01*
X-71306D01*
Y71305D01*
Y70856D01*
Y70408D01*
Y69959D01*
Y69510D01*
Y69062D01*
Y68613D01*
Y68164D01*
Y67716D01*
Y67267D01*
Y66818D01*
Y66370D01*
Y65921D01*
Y65472D01*
Y65024D01*
Y64575D01*
Y64127D01*
Y63678D01*
Y63229D01*
Y62781D01*
Y62332D01*
Y61883D01*
Y61435D01*
Y60986D01*
Y60538D01*
Y60089D01*
X-70857D01*
Y59640D01*
Y59192D01*
Y58743D01*
X-69511D01*
Y59192D01*
X-67717D01*
Y59640D01*
X-65922D01*
Y60089D01*
X-64577D01*
Y60538D01*
X-60539D01*
Y60089D01*
X-60090D01*
Y60538D01*
Y60986D01*
Y61435D01*
X-60539D01*
Y61883D01*
Y62332D01*
Y62781D01*
Y63229D01*
X-60090D01*
Y63678D01*
X-58744D01*
Y64127D01*
X-54258D01*
Y63678D01*
Y63229D01*
Y62781D01*
Y62332D01*
Y61883D01*
X-54707D01*
Y61435D01*
X-56501D01*
Y60986D01*
Y60538D01*
Y60089D01*
X-55604D01*
Y60538D01*
X-52912D01*
Y60089D01*
X-52015D01*
Y60538D01*
X-51118D01*
Y60986D01*
X-50669D01*
Y61435D01*
Y61883D01*
X-50220D01*
Y62332D01*
X-49772D01*
Y62781D01*
X-47528D01*
Y62332D01*
X-47080D01*
Y61883D01*
Y61435D01*
Y60986D01*
Y60538D01*
X-48426D01*
Y60089D01*
X-48874D01*
Y59640D01*
Y59192D01*
X-49323D01*
Y58743D01*
X-50220D01*
Y58294D01*
X-51118D01*
Y57846D01*
Y57397D01*
X-49772D01*
Y56948D01*
X-49323D01*
Y56500D01*
Y56051D01*
Y55603D01*
X-50220D01*
Y55154D01*
X-52912D01*
Y54705D01*
X-53809D01*
Y54257D01*
Y53808D01*
X-52912D01*
Y53359D01*
X-52463D01*
Y52911D01*
X-52015D01*
Y52462D01*
X-51566D01*
Y52014D01*
X-51118D01*
Y51565D01*
X-50669D01*
Y51116D01*
Y50668D01*
X-50220D01*
Y50219D01*
Y49770D01*
X-49323D01*
Y50219D01*
Y50668D01*
Y51116D01*
Y51565D01*
Y52014D01*
Y52462D01*
Y52911D01*
Y53359D01*
Y53808D01*
Y54257D01*
X-48874D01*
Y54705D01*
X-47528D01*
Y54257D01*
X-47080D01*
Y53808D01*
Y53359D01*
Y52911D01*
Y52462D01*
Y52014D01*
Y51565D01*
Y51116D01*
Y50668D01*
Y50219D01*
Y49770D01*
Y49322D01*
Y48873D01*
Y48425D01*
X-45734D01*
Y48873D01*
X-41248D01*
Y49322D01*
X-40799D01*
Y49770D01*
Y50219D01*
Y50668D01*
Y51116D01*
Y51565D01*
Y52014D01*
Y52462D01*
X-41248D01*
Y52911D01*
Y53359D01*
Y53808D01*
Y54257D01*
Y54705D01*
X-40799D01*
Y55154D01*
Y55603D01*
Y56051D01*
Y56500D01*
X-39004D01*
Y56051D01*
Y55603D01*
Y55154D01*
Y54705D01*
Y54257D01*
Y53808D01*
Y53359D01*
Y52911D01*
Y52462D01*
Y52014D01*
Y51565D01*
Y51116D01*
Y50668D01*
Y50219D01*
Y49770D01*
Y49322D01*
Y48873D01*
X-38556D01*
Y48425D01*
Y47976D01*
Y47527D01*
Y47078D01*
X-39004D01*
Y46630D01*
Y46181D01*
X-38556D01*
Y45733D01*
X-39004D01*
Y45284D01*
Y44835D01*
Y44387D01*
Y43938D01*
Y43489D01*
Y43041D01*
X-38556D01*
Y42592D01*
Y42144D01*
X-39004D01*
Y41695D01*
X-40799D01*
Y41246D01*
Y40798D01*
Y40349D01*
Y39900D01*
Y39452D01*
X-41248D01*
Y39003D01*
X-42593D01*
Y38554D01*
X-43042D01*
Y38106D01*
Y37657D01*
X-42145D01*
Y37209D01*
X-41696D01*
Y36760D01*
Y36311D01*
Y35863D01*
X-42145D01*
Y35414D01*
X-42593D01*
Y34966D01*
X-43939D01*
Y34517D01*
X-46182D01*
Y34966D01*
X-47528D01*
Y35414D01*
X-47977D01*
Y35863D01*
X-48426D01*
Y36311D01*
Y36760D01*
Y37209D01*
Y37657D01*
Y38106D01*
Y38554D01*
X-47977D01*
Y39003D01*
X-47528D01*
Y39452D01*
X-47080D01*
Y39900D01*
X-46182D01*
Y40349D01*
X-45285D01*
Y40798D01*
X-44388D01*
Y41246D01*
X-43939D01*
Y41695D01*
X-43042D01*
Y42144D01*
X-40799D01*
Y42592D01*
Y43041D01*
Y43489D01*
Y43938D01*
Y44387D01*
Y44835D01*
Y45284D01*
Y45733D01*
Y46181D01*
Y46630D01*
X-41248D01*
Y47078D01*
X-42593D01*
Y46630D01*
X-46631D01*
Y46181D01*
X-47080D01*
Y45733D01*
X-47528D01*
Y45284D01*
Y44835D01*
Y44387D01*
Y43938D01*
Y43489D01*
Y43041D01*
Y42592D01*
Y42144D01*
Y41695D01*
Y41246D01*
Y40798D01*
X-47977D01*
Y40349D01*
Y39900D01*
X-48426D01*
Y39452D01*
X-48874D01*
Y39003D01*
X-49772D01*
Y38554D01*
X-52463D01*
Y38106D01*
X-54258D01*
Y37657D01*
X-55604D01*
Y37209D01*
X-60090D01*
Y37657D01*
X-60987D01*
Y37209D01*
X-64577D01*
Y36760D01*
Y36311D01*
Y35863D01*
Y35414D01*
Y34966D01*
X-64128D01*
Y34517D01*
Y34068D01*
Y33620D01*
Y33171D01*
X-63679D01*
Y32722D01*
Y32274D01*
Y31825D01*
Y31376D01*
Y30928D01*
Y30479D01*
X-63231D01*
Y30031D01*
X-62782D01*
Y29582D01*
Y29133D01*
Y28685D01*
X-62333D01*
Y28236D01*
Y27787D01*
Y27339D01*
X-61885D01*
Y26890D01*
Y26442D01*
X-61436D01*
Y25993D01*
X-60987D01*
Y25544D01*
Y25096D01*
X-60539D01*
Y24647D01*
Y24198D01*
Y23750D01*
X-59641D01*
Y23301D01*
Y22852D01*
Y22404D01*
X-58744D01*
Y21955D01*
Y21507D01*
X-57847D01*
Y21058D01*
X-57398D01*
Y20609D01*
X-56950D01*
Y20161D01*
X-56501D01*
Y19712D01*
X-56052D01*
Y19263D01*
X-55604D01*
Y18815D01*
X-55155D01*
Y18366D01*
X-54258D01*
Y17917D01*
X-53809D01*
Y17469D01*
X-52912D01*
Y17020D01*
X-52015D01*
Y16572D01*
X-50669D01*
Y16123D01*
X-49323D01*
Y15674D01*
X-48426D01*
Y15226D01*
X-44388D01*
Y15674D01*
X-43491D01*
Y16123D01*
X-41696D01*
Y16572D01*
X-40799D01*
Y17020D01*
X-39453D01*
Y17469D01*
X-37659D01*
Y17917D01*
X-36761D01*
Y18366D01*
X-35864D01*
Y18815D01*
X-34967D01*
Y19263D01*
X-34518D01*
Y19712D01*
X-34069D01*
Y20161D01*
X-33172D01*
Y20609D01*
X-32724D01*
Y21058D01*
X-32275D01*
Y21507D01*
X-31378D01*
Y21955D01*
X-30929D01*
Y22404D01*
X-30032D01*
Y22852D01*
Y23301D01*
X-29583D01*
Y23750D01*
X-29135D01*
Y24198D01*
X-28686D01*
Y24647D01*
X-28237D01*
Y25096D01*
X-27789D01*
Y25544D01*
Y25993D01*
X-27340D01*
Y26442D01*
X-26891D01*
Y26890D01*
X-26443D01*
Y27339D01*
Y27787D01*
X-25994D01*
Y28236D01*
X-25545D01*
Y28685D01*
Y29133D01*
Y29582D01*
X-25097D01*
Y30031D01*
X-24648D01*
Y30479D01*
Y30928D01*
X-24200D01*
Y31376D01*
X-23751D01*
Y31825D01*
Y32274D01*
X-23302D01*
Y32722D01*
Y33171D01*
Y33620D01*
Y34068D01*
Y34517D01*
Y34966D01*
Y35414D01*
X-22854D01*
Y35863D01*
Y36311D01*
X-22405D01*
Y36760D01*
Y37209D01*
Y37657D01*
Y38106D01*
Y38554D01*
Y39003D01*
Y39452D01*
X-23751D01*
Y39003D01*
X-31378D01*
Y38554D01*
X-33172D01*
Y39003D01*
X-38107D01*
Y39452D01*
X-38556D01*
Y39900D01*
Y40349D01*
Y40798D01*
X-33621D01*
Y41246D01*
Y41695D01*
X-34518D01*
Y42144D01*
X-34967D01*
Y42592D01*
X-35415D01*
Y43041D01*
X-35864D01*
Y43489D01*
Y43938D01*
X-36313D01*
Y44387D01*
X-36761D01*
Y44835D01*
Y45284D01*
Y45733D01*
X-37210D01*
Y46181D01*
Y46630D01*
Y47078D01*
Y47527D01*
Y47976D01*
Y48425D01*
Y48873D01*
Y49322D01*
Y49770D01*
Y50219D01*
Y50668D01*
Y51116D01*
X-36761D01*
Y51565D01*
Y52014D01*
Y52462D01*
X-36313D01*
Y52911D01*
X-35864D01*
Y53359D01*
X-35415D01*
Y53808D01*
X-34967D01*
Y54257D01*
X-34518D01*
Y54705D01*
X-34069D01*
Y55154D01*
X-33172D01*
Y55603D01*
X-32724D01*
Y56051D01*
X-32275D01*
Y56500D01*
Y56948D01*
Y57397D01*
Y57846D01*
Y58294D01*
X-30929D01*
Y58743D01*
X-29135D01*
Y59192D01*
Y59640D01*
X-30929D01*
Y59192D01*
X-32724D01*
Y59640D01*
X-33621D01*
Y60089D01*
Y60538D01*
Y60986D01*
Y61435D01*
X-24648D01*
Y60986D01*
X-19713D01*
Y61435D01*
X-19265D01*
Y61883D01*
Y62332D01*
Y62781D01*
Y63229D01*
Y63678D01*
Y64127D01*
Y64575D01*
Y65024D01*
Y65472D01*
Y65921D01*
Y66370D01*
Y66818D01*
Y67267D01*
Y67716D01*
Y68164D01*
Y68613D01*
Y69062D01*
Y69510D01*
Y69959D01*
X-19713D01*
Y70408D01*
Y70856D01*
X-20162D01*
Y71305D01*
Y71753D01*
Y72202D01*
Y72651D01*
X-20610D01*
Y73099D01*
Y73548D01*
Y73997D01*
Y74445D01*
Y74894D01*
X-21059D01*
Y75342D01*
Y75791D01*
Y76240D01*
Y76688D01*
Y77137D01*
X-21508D01*
Y77586D01*
Y78034D01*
X-21956D01*
Y78483D01*
Y78931D01*
Y79380D01*
X-22405D01*
Y79829D01*
Y80277D01*
Y80726D01*
X-22854D01*
Y81175D01*
Y81623D01*
X-23302D01*
Y82072D01*
Y82521D01*
X-23751D01*
Y82969D01*
Y83418D01*
X-24200D01*
Y83867D01*
Y84315D01*
Y84764D01*
X-25097D01*
Y85212D01*
X-25545D01*
Y85661D01*
Y86110D01*
X-25994D01*
Y86558D01*
X-26443D01*
Y87007D01*
X-26891D01*
Y87456D01*
X-27340D01*
Y87904D01*
X-27789D01*
Y88353D01*
X-28686D01*
Y88801D01*
X-29135D01*
Y89250D01*
X-29583D01*
Y89699D01*
X-30929D01*
Y90147D01*
X-31378D01*
Y90596D01*
X-32275D01*
Y91045D01*
X-33172D01*
Y91493D01*
X-34518D01*
Y91942D01*
X-34967D01*
Y92390D01*
X-35415D01*
Y92839D01*
Y93288D01*
X-31826D01*
Y92839D01*
X-30929D01*
Y92390D01*
X-30032D01*
Y91942D01*
X-29583D01*
Y91493D01*
X-28237D01*
Y91045D01*
X-27789D01*
Y90596D01*
X-27340D01*
Y90147D01*
X-26891D01*
Y89699D01*
X-26443D01*
Y89250D01*
X-25994D01*
Y88801D01*
X-25545D01*
Y88353D01*
X-25097D01*
Y87904D01*
X-24648D01*
Y87456D01*
X-24200D01*
Y87007D01*
X-23751D01*
Y86558D01*
Y86110D01*
X-23302D01*
Y85661D01*
Y85212D01*
X-22854D01*
Y84764D01*
X-22405D01*
Y84315D01*
Y83867D01*
Y83418D01*
X-21956D01*
Y82969D01*
Y82521D01*
X-21508D01*
Y82072D01*
Y81623D01*
X-21059D01*
Y81175D01*
Y80726D01*
X-20610D01*
Y80277D01*
Y79829D01*
X-20162D01*
Y79380D01*
Y78931D01*
Y78483D01*
Y78034D01*
Y77586D01*
Y77137D01*
X-19265D01*
Y76688D01*
Y76240D01*
Y75791D01*
Y75342D01*
Y74894D01*
X-18816D01*
Y74445D01*
Y73997D01*
Y73548D01*
Y73099D01*
X-18367D01*
Y72651D01*
Y72202D01*
Y71753D01*
X-17919D01*
Y71305D01*
Y70856D01*
Y70408D01*
Y69959D01*
Y69510D01*
X-17470D01*
Y69062D01*
Y68613D01*
Y68164D01*
Y67716D01*
Y67267D01*
Y66818D01*
Y66370D01*
Y65921D01*
Y65472D01*
Y65024D01*
Y64575D01*
Y64127D01*
Y63678D01*
Y63229D01*
Y62781D01*
Y62332D01*
Y61883D01*
Y61435D01*
X-17021D01*
Y60986D01*
Y60538D01*
Y60089D01*
X-17470D01*
Y59640D01*
Y59192D01*
X-19713D01*
Y58743D01*
X-20162D01*
Y58294D01*
Y57846D01*
X-24648D01*
Y57397D01*
X-27340D01*
Y56948D01*
Y56500D01*
X-26443D01*
Y56051D01*
X-23751D01*
Y55603D01*
X-22854D01*
Y55154D01*
Y54705D01*
X-21956D01*
Y54257D01*
X-21508D01*
Y53808D01*
X-21059D01*
Y53359D01*
X-20610D01*
Y52911D01*
Y52462D01*
X-20162D01*
Y52014D01*
Y51565D01*
Y51116D01*
Y50668D01*
X-19713D01*
Y50219D01*
Y49770D01*
Y49322D01*
Y48873D01*
X-18816D01*
Y49322D01*
Y49770D01*
X-18367D01*
Y50219D01*
Y50668D01*
Y51116D01*
Y51565D01*
Y52014D01*
Y52462D01*
Y52911D01*
Y53359D01*
Y53808D01*
Y54257D01*
Y54705D01*
Y55154D01*
Y55603D01*
X-17919D01*
Y56051D01*
X-16573D01*
Y55603D01*
Y55154D01*
Y54705D01*
Y54257D01*
Y53808D01*
Y53359D01*
Y52911D01*
Y52462D01*
Y52014D01*
Y51565D01*
Y51116D01*
Y50668D01*
Y50219D01*
Y49770D01*
Y49322D01*
X-12984D01*
Y48873D01*
Y48425D01*
X-12535D01*
Y47976D01*
Y47527D01*
Y47078D01*
Y46630D01*
Y46181D01*
Y45733D01*
Y45284D01*
Y44835D01*
Y44387D01*
Y43938D01*
X-12984D01*
Y43489D01*
X-12535D01*
Y43041D01*
X-12984D01*
Y42592D01*
X-13432D01*
Y42144D01*
Y41695D01*
Y41246D01*
Y40798D01*
Y40349D01*
Y39900D01*
X-13881D01*
Y39452D01*
Y39003D01*
Y38554D01*
Y38106D01*
X-14330D01*
Y37657D01*
Y37209D01*
X-14778D01*
Y36760D01*
Y36311D01*
X-15675D01*
Y35863D01*
X-16124D01*
Y35414D01*
X-16573D01*
Y34966D01*
X-17021D01*
Y34517D01*
X-20162D01*
Y34068D01*
X-21059D01*
Y33620D01*
X-21508D01*
Y33171D01*
Y32722D01*
Y32274D01*
X-21059D01*
Y31825D01*
X-21508D01*
Y31376D01*
Y30928D01*
X-21956D01*
Y30479D01*
Y30031D01*
X-22405D01*
Y29582D01*
Y29133D01*
Y28685D01*
X-22854D01*
Y28236D01*
X-23302D01*
Y27787D01*
Y27339D01*
X-23751D01*
Y26890D01*
X-24200D01*
Y26442D01*
Y25993D01*
X-25097D01*
Y25544D01*
Y25096D01*
X-25545D01*
Y24647D01*
X-25994D01*
Y24198D01*
X-26443D01*
Y23750D01*
Y23301D01*
X-26891D01*
Y22852D01*
X-27340D01*
Y22404D01*
X-27789D01*
Y21955D01*
Y21507D01*
X-28686D01*
Y21058D01*
X-29135D01*
Y20609D01*
X-29583D01*
Y20161D01*
X-30032D01*
Y19712D01*
X-30480D01*
Y19263D01*
X-30929D01*
Y18815D01*
X-31378D01*
Y18366D01*
X-32275D01*
Y17917D01*
X-32724D01*
Y17469D01*
X-33621D01*
Y17020D01*
X-34518D01*
Y16572D01*
X-34967D01*
Y16123D01*
X-34518D01*
Y15674D01*
X-34967D01*
Y15226D01*
Y14777D01*
Y14328D01*
X-35415D01*
Y13880D01*
Y13431D01*
Y12982D01*
Y12534D01*
Y12085D01*
Y11637D01*
Y11188D01*
Y10739D01*
X-35864D01*
Y10291D01*
X-37210D01*
Y10739D01*
X-37659D01*
Y11188D01*
Y11637D01*
Y12085D01*
Y12534D01*
Y12982D01*
Y13431D01*
Y13880D01*
Y14328D01*
Y14777D01*
Y15226D01*
X-38107D01*
Y14777D01*
X-39004D01*
Y14328D01*
X-40350D01*
Y13880D01*
X-41696D01*
Y13431D01*
X-50220D01*
Y13880D01*
X-51118D01*
Y13431D01*
Y12982D01*
Y12534D01*
Y12085D01*
X-50669D01*
Y11637D01*
Y11188D01*
Y10739D01*
Y10291D01*
X-51118D01*
Y9842D01*
X-52463D01*
Y10291D01*
X-52912D01*
Y10739D01*
Y11188D01*
X-53361D01*
Y11637D01*
X-52912D01*
Y12085D01*
Y12534D01*
X-53361D01*
Y12982D01*
Y13431D01*
X-53809D01*
Y13880D01*
Y14328D01*
Y14777D01*
X-54258D01*
Y15226D01*
X-54707D01*
Y15674D01*
X-55155D01*
Y16123D01*
X-56052D01*
Y16572D01*
X-56501D01*
Y17020D01*
X-57398D01*
Y17469D01*
X-57847D01*
Y17917D01*
X-58296D01*
Y18366D01*
X-58744D01*
Y18815D01*
X-59641D01*
Y19263D01*
X-60090D01*
Y19712D01*
Y20161D01*
X-60539D01*
Y20609D01*
X-60987D01*
Y21058D01*
X-61436D01*
Y21507D01*
X-61885D01*
Y21955D01*
Y22404D01*
X-62333D01*
Y22852D01*
X-62782D01*
Y23301D01*
Y23750D01*
X-63231D01*
Y24198D01*
Y24647D01*
X-63679D01*
Y25096D01*
Y25544D01*
X-64128D01*
Y25993D01*
Y26442D01*
Y26890D01*
X-64577D01*
Y27339D01*
Y27787D01*
X-65025D01*
Y28236D01*
Y28685D01*
X-65474D01*
Y29133D01*
Y29582D01*
Y30031D01*
Y30479D01*
X-65922D01*
Y30928D01*
Y31376D01*
Y31825D01*
Y32274D01*
X-66371D01*
Y32722D01*
X-68614D01*
Y33171D01*
X-69960D01*
Y33620D01*
X-70857D01*
Y34068D01*
X-71306D01*
Y34517D01*
X-71755D01*
Y34966D01*
X-72203D01*
Y35414D01*
X-72652D01*
Y35863D01*
Y36311D01*
X-73101D01*
Y36760D01*
X-73549D01*
Y37209D01*
X-73998D01*
Y37657D01*
Y38106D01*
Y38554D01*
X-74446D01*
Y39003D01*
Y39452D01*
Y39900D01*
Y40349D01*
X-74895D01*
Y40798D01*
Y41246D01*
Y41695D01*
X-75344D01*
Y42144D01*
X-74895D01*
Y42592D01*
X-75344D01*
Y43041D01*
Y43489D01*
X-74895D01*
Y43938D01*
X-74446D01*
Y44387D01*
Y44835D01*
Y45284D01*
X-73998D01*
Y45733D01*
X-73101D01*
Y46181D01*
X-72203D01*
Y46630D01*
Y47078D01*
Y47527D01*
Y47976D01*
Y48425D01*
Y48873D01*
Y49322D01*
Y49770D01*
Y50219D01*
Y50668D01*
Y51116D01*
Y51565D01*
Y52014D01*
X-71755D01*
Y52462D01*
Y52911D01*
Y53359D01*
X-71306D01*
Y53808D01*
Y54257D01*
X-70857D01*
Y54705D01*
X-69960D01*
Y55154D01*
Y55603D01*
Y56051D01*
X-70409D01*
Y56500D01*
X-70857D01*
Y56948D01*
X-71755D01*
Y57397D01*
X-72203D01*
Y57846D01*
X-72652D01*
Y58294D01*
X-73101D01*
Y58743D01*
X-73549D01*
Y59192D01*
X-73101D01*
Y59640D01*
X-73549D01*
Y60089D01*
Y60538D01*
Y60986D01*
Y61435D01*
X-73998D01*
Y61883D01*
Y62332D01*
Y62781D01*
Y63229D01*
Y63678D01*
Y64127D01*
Y64575D01*
Y65024D01*
Y65472D01*
Y65921D01*
Y66370D01*
Y66818D01*
Y67267D01*
Y67716D01*
Y68164D01*
Y68613D01*
Y69062D01*
Y69510D01*
Y69959D01*
Y70408D01*
Y70856D01*
X-73549D01*
Y71305D01*
Y71753D01*
Y72202D01*
Y72651D01*
Y73099D01*
X-73101D01*
Y73548D01*
X-73549D01*
Y73997D01*
X-73101D01*
Y74445D01*
Y74894D01*
X-72652D01*
Y75342D01*
Y75791D01*
Y76240D01*
Y76688D01*
X-72203D01*
Y77137D01*
Y77586D01*
Y78034D01*
Y78483D01*
X-71755D01*
Y78931D01*
Y79380D01*
Y79829D01*
X-71306D01*
Y80277D01*
X-70857D01*
Y80726D01*
Y81175D01*
X-70409D01*
Y81623D01*
X-69960D01*
Y82072D01*
Y82521D01*
X-69511D01*
Y82969D01*
X-69063D01*
Y83418D01*
X-68614D01*
Y83867D01*
Y84315D01*
X-68165D01*
Y84764D01*
X-67717D01*
Y85212D01*
X-67268D01*
Y85661D01*
Y86110D01*
X-66820D01*
Y86558D01*
X-66371D01*
Y87007D01*
X-65922D01*
Y87456D01*
X-65474D01*
Y87904D01*
X-64577D01*
Y88353D01*
X-64128D01*
Y88801D01*
X-63679D01*
Y89250D01*
X-63231D01*
Y89699D01*
X-62333D01*
Y90147D01*
X-61885D01*
Y90596D01*
X-60987D01*
Y91045D01*
X-60090D01*
Y91493D01*
X-58296D01*
Y91942D01*
X-56950D01*
Y92390D01*
X-56052D01*
Y92839D01*
X-54707D01*
Y93288D01*
X-52463D01*
Y93736D01*
X-50669D01*
Y94185D01*
X-48874D01*
Y94634D01*
X-46631D01*
Y95082D01*
X-43491D01*
Y95531D01*
Y95979D01*
Y96428D01*
X-43042D01*
Y96877D01*
X-39902D01*
Y96428D01*
D02*
G37*
G36*
X-37659Y88353D02*
X-36761D01*
Y87904D01*
Y87456D01*
X-36313D01*
Y87007D01*
X-35864D01*
Y86558D01*
Y86110D01*
X-35415D01*
Y85661D01*
Y85212D01*
X-34967D01*
Y84764D01*
Y84315D01*
Y83867D01*
X-35415D01*
Y83418D01*
X-36313D01*
Y83867D01*
X-36761D01*
Y84315D01*
X-37210D01*
Y84764D01*
X-37659D01*
Y85212D01*
Y85661D01*
X-38556D01*
Y86110D01*
Y86558D01*
X-39004D01*
Y87007D01*
Y87456D01*
X-39902D01*
Y87904D01*
Y88353D01*
Y88801D01*
X-37659D01*
Y88353D01*
D02*
G37*
G36*
X-28237Y65024D02*
X-27340D01*
Y64575D01*
X-26891D01*
Y64127D01*
Y63678D01*
X-27340D01*
Y63229D01*
X-28686D01*
Y62781D01*
X-30032D01*
Y63229D01*
X-31378D01*
Y63678D01*
Y64127D01*
Y64575D01*
X-30929D01*
Y65024D01*
X-30032D01*
Y65472D01*
X-28237D01*
Y65024D01*
D02*
G37*
G36*
X-38556Y60986D02*
Y60538D01*
Y60089D01*
X-39004D01*
Y59640D01*
X-39902D01*
Y59192D01*
X-43939D01*
Y59640D01*
X-44388D01*
Y60089D01*
Y60538D01*
Y60986D01*
X-41248D01*
Y61435D01*
X-38556D01*
Y60986D01*
D02*
G37*
G36*
X-37659Y31376D02*
Y30928D01*
Y30479D01*
X-38107D01*
Y30031D01*
X-42145D01*
Y29582D01*
X-45285D01*
Y29133D01*
X-47528D01*
Y28685D01*
X-50220D01*
Y29133D01*
Y29582D01*
Y30031D01*
X-49772D01*
Y30479D01*
X-47977D01*
Y30928D01*
X-46182D01*
Y31376D01*
X-44837D01*
Y31825D01*
X-37659D01*
Y31376D01*
D02*
G37*
G36*
X-41248Y26442D02*
X-41696D01*
Y25993D01*
X-41248D01*
Y25544D01*
X-41696D01*
Y25096D01*
X-43042D01*
Y24647D01*
X-45734D01*
Y25096D01*
X-46182D01*
Y25544D01*
Y25993D01*
Y26442D01*
X-44388D01*
Y26890D01*
X-41248D01*
Y26442D01*
D02*
G37*
G36*
X-43491Y11637D02*
Y11188D01*
Y10739D01*
X-43939D01*
Y10291D01*
X-46631D01*
Y10739D01*
Y11188D01*
Y11637D01*
X-46182D01*
Y12085D01*
X-43491D01*
Y11637D01*
D02*
G37*
G36*
X-32275D02*
X-31826D01*
Y11188D01*
Y10739D01*
X-31378D01*
Y10291D01*
X-30480D01*
Y9842D01*
X-28686D01*
Y9393D01*
X-26891D01*
Y8945D01*
X-25994D01*
Y8496D01*
X-25097D01*
Y8048D01*
X-23751D01*
Y7599D01*
X-22854D01*
Y7150D01*
X-21956D01*
Y6702D01*
X-21059D01*
Y6253D01*
X-20610D01*
Y5804D01*
X-19713D01*
Y5356D01*
X-19265D01*
Y4907D01*
X-18367D01*
Y4458D01*
X-17470D01*
Y4010D01*
X-16573D01*
Y3561D01*
X-15675D01*
Y3113D01*
X-14778D01*
Y2664D01*
X-13881D01*
Y2215D01*
X-13432D01*
Y1767D01*
Y1318D01*
Y869D01*
X-15227D01*
Y1318D01*
X-16124D01*
Y1767D01*
X-17470D01*
Y2215D01*
X-18816D01*
Y2664D01*
X-19713D01*
Y3113D01*
X-20162D01*
Y3561D01*
X-21059D01*
Y4010D01*
X-21956D01*
Y4458D01*
X-22854D01*
Y4907D01*
X-23751D01*
Y5356D01*
X-24648D01*
Y5804D01*
X-25545D01*
Y6253D01*
X-26443D01*
Y6702D01*
X-28237D01*
Y7150D01*
X-29135D01*
Y7599D01*
X-30032D01*
Y8048D01*
X-31378D01*
Y7599D01*
Y7150D01*
Y6702D01*
X-31826D01*
Y6253D01*
Y5804D01*
Y5356D01*
Y4907D01*
X-32275D01*
Y4458D01*
Y4010D01*
Y3561D01*
X-32724D01*
Y3113D01*
Y2664D01*
Y2215D01*
X-33172D01*
Y1767D01*
Y1318D01*
X-33621D01*
Y869D01*
X-36761D01*
Y1318D01*
Y1767D01*
Y2215D01*
Y2664D01*
Y3113D01*
X-36313D01*
Y3561D01*
Y4010D01*
X-35864D01*
Y4458D01*
Y4907D01*
X-35415D01*
Y5356D01*
Y5804D01*
Y6253D01*
X-34967D01*
Y6702D01*
Y7150D01*
X-34518D01*
Y7599D01*
X-34967D01*
Y8048D01*
X-34518D01*
Y8496D01*
Y8945D01*
X-34069D01*
Y9393D01*
Y9842D01*
Y10291D01*
Y10739D01*
Y11188D01*
Y11637D01*
Y12085D01*
X-32275D01*
Y11637D01*
D02*
G37*
G36*
X-54258Y8496D02*
Y8048D01*
Y7599D01*
Y7150D01*
Y6702D01*
Y6253D01*
Y5804D01*
Y5356D01*
X-53809D01*
Y4907D01*
Y4458D01*
X-52912D01*
Y4010D01*
Y3561D01*
Y3113D01*
X-52463D01*
Y2664D01*
Y2215D01*
Y1767D01*
Y1318D01*
Y869D01*
X-54258D01*
Y1318D01*
Y1767D01*
X-54707D01*
Y2215D01*
Y2664D01*
X-55155D01*
Y3113D01*
Y3561D01*
Y4010D01*
X-55604D01*
Y4458D01*
Y4907D01*
X-56052D01*
Y5356D01*
X-56501D01*
Y5804D01*
Y6253D01*
X-56950D01*
Y6702D01*
Y7150D01*
Y7599D01*
Y8048D01*
Y8496D01*
X-55604D01*
Y8945D01*
X-54258D01*
Y8496D01*
D02*
G37*
G36*
X-58744Y5804D02*
Y5356D01*
X-58296D01*
Y4907D01*
Y4458D01*
X-57847D01*
Y4010D01*
Y3561D01*
X-57398D01*
Y3113D01*
Y2664D01*
X-56950D01*
Y2215D01*
Y1767D01*
Y1318D01*
Y869D01*
X-58744D01*
Y1318D01*
X-59193D01*
Y1767D01*
Y2215D01*
X-59641D01*
Y2664D01*
Y3113D01*
X-61436D01*
Y2664D01*
X-62333D01*
Y2215D01*
X-62782D01*
Y1767D01*
X-63679D01*
Y1318D01*
X-64577D01*
Y869D01*
X-65474D01*
Y421D01*
X-67268D01*
Y869D01*
Y1318D01*
Y1767D01*
Y2215D01*
X-66820D01*
Y2664D01*
X-66371D01*
Y3113D01*
X-65474D01*
Y3561D01*
X-64577D01*
Y4010D01*
X-64128D01*
Y4458D01*
X-63231D01*
Y4907D01*
X-62333D01*
Y5356D01*
X-61436D01*
Y5804D01*
X-60539D01*
Y6253D01*
X-58744D01*
Y5804D01*
D02*
G37*
%LPC*%
G36*
X-52463Y57846D02*
X-63679D01*
Y57397D01*
X-65922D01*
Y56948D01*
X-67268D01*
Y56500D01*
X-67717D01*
Y56051D01*
Y55603D01*
X-64577D01*
Y56051D01*
X-59193D01*
Y56500D01*
X-55155D01*
Y56948D01*
X-52463D01*
Y57397D01*
Y57846D01*
D02*
G37*
G36*
X-27340Y54705D02*
X-29135D01*
Y54257D01*
X-30480D01*
Y53808D01*
X-31826D01*
Y53359D01*
X-32275D01*
Y52911D01*
X-32724D01*
Y52462D01*
X-33621D01*
Y52014D01*
X-34069D01*
Y51565D01*
Y51116D01*
X-34518D01*
Y50668D01*
Y50219D01*
Y49770D01*
Y49322D01*
X-34967D01*
Y48873D01*
Y48425D01*
Y47976D01*
X-34518D01*
Y47527D01*
Y47078D01*
Y46630D01*
X-34069D01*
Y46181D01*
Y45733D01*
X-33621D01*
Y45284D01*
Y44835D01*
X-33172D01*
Y44387D01*
X-32724D01*
Y43938D01*
X-32275D01*
Y43489D01*
X-30480D01*
Y43041D01*
X-28237D01*
Y43489D01*
X-26443D01*
Y43938D01*
X-25994D01*
Y44387D01*
X-25097D01*
Y44835D01*
X-24648D01*
Y45284D01*
X-24200D01*
Y45733D01*
X-23751D01*
Y46181D01*
X-23302D01*
Y46630D01*
X-22854D01*
Y47078D01*
X-22405D01*
Y47527D01*
Y47976D01*
Y48425D01*
Y48873D01*
X-21956D01*
Y49322D01*
Y49770D01*
Y50219D01*
X-22405D01*
Y50668D01*
Y51116D01*
Y51565D01*
X-23302D01*
Y52014D01*
Y52462D01*
X-23751D01*
Y52911D01*
X-24648D01*
Y53359D01*
X-25097D01*
Y53808D01*
X-25994D01*
Y54257D01*
X-27340D01*
Y54705D01*
D02*
G37*
G36*
X-56052Y52462D02*
X-58296D01*
Y52014D01*
X-58744D01*
Y51565D01*
X-59641D01*
Y51116D01*
X-60090D01*
Y50668D01*
X-60539D01*
Y50219D01*
X-61436D01*
Y49770D01*
Y49322D01*
X-61885D01*
Y48873D01*
X-62333D01*
Y48425D01*
Y47976D01*
Y47527D01*
X-62782D01*
Y47078D01*
Y46630D01*
Y46181D01*
Y45733D01*
X-62333D01*
Y45284D01*
Y44835D01*
Y44387D01*
X-61885D01*
Y43938D01*
X-61436D01*
Y43489D01*
Y43041D01*
X-60987D01*
Y42592D01*
X-60539D01*
Y42144D01*
X-59641D01*
Y41695D01*
X-58296D01*
Y41246D01*
X-56501D01*
Y41695D01*
X-55604D01*
Y42144D01*
X-54707D01*
Y42592D01*
X-54258D01*
Y43041D01*
X-53809D01*
Y43489D01*
X-53361D01*
Y43938D01*
Y44387D01*
X-52912D01*
Y44835D01*
X-52463D01*
Y45284D01*
Y45733D01*
X-52015D01*
Y46181D01*
Y46630D01*
Y47078D01*
X-51566D01*
Y47527D01*
Y47976D01*
Y48425D01*
Y48873D01*
X-52015D01*
Y49322D01*
X-52463D01*
Y49770D01*
X-52912D01*
Y50219D01*
X-53361D01*
Y50668D01*
X-53809D01*
Y51116D01*
X-54258D01*
Y51565D01*
X-55155D01*
Y52014D01*
X-56052D01*
Y52462D01*
D02*
G37*
G36*
X-49323Y45284D02*
X-50220D01*
Y44835D01*
Y44387D01*
Y43938D01*
X-50669D01*
Y43489D01*
X-51118D01*
Y43041D01*
Y42592D01*
X-51566D01*
Y42144D01*
X-52015D01*
Y41695D01*
X-52463D01*
Y41246D01*
Y40798D01*
X-49323D01*
Y41246D01*
Y41695D01*
Y42144D01*
Y42592D01*
Y43041D01*
Y43489D01*
Y43938D01*
Y44387D01*
Y44835D01*
Y45284D01*
D02*
G37*
G36*
X-71306Y42592D02*
X-72203D01*
Y42144D01*
Y41695D01*
Y41246D01*
Y40798D01*
Y40349D01*
X-71755D01*
Y39900D01*
Y39452D01*
X-70857D01*
Y39900D01*
Y40349D01*
Y40798D01*
Y41246D01*
Y41695D01*
X-71306D01*
Y42144D01*
Y42592D01*
D02*
G37*
G36*
X-60987Y53808D02*
X-67717D01*
Y53359D01*
X-68614D01*
Y52911D01*
X-69063D01*
Y52462D01*
X-69511D01*
Y52014D01*
X-69960D01*
Y51565D01*
Y51116D01*
Y50668D01*
Y50219D01*
Y49770D01*
X-69511D01*
Y49322D01*
Y48873D01*
Y48425D01*
Y47976D01*
Y47527D01*
Y47078D01*
Y46630D01*
Y46181D01*
Y45733D01*
Y45284D01*
X-69063D01*
Y44835D01*
Y44387D01*
Y43938D01*
Y43489D01*
Y43041D01*
Y42592D01*
X-68614D01*
Y42144D01*
X-69063D01*
Y41695D01*
Y41246D01*
Y40798D01*
X-68614D01*
Y40349D01*
X-68165D01*
Y39900D01*
X-67717D01*
Y39452D01*
X-65474D01*
Y39003D01*
X-63231D01*
Y39452D01*
X-60987D01*
Y39900D01*
Y40349D01*
X-61885D01*
Y40798D01*
Y41246D01*
X-62782D01*
Y41695D01*
X-63231D01*
Y42144D01*
X-63679D01*
Y42592D01*
X-64128D01*
Y43041D01*
Y43489D01*
Y43938D01*
X-64577D01*
Y44387D01*
Y44835D01*
Y45284D01*
X-65025D01*
Y45733D01*
Y46181D01*
Y46630D01*
Y47078D01*
Y47527D01*
Y47976D01*
X-64577D01*
Y48425D01*
Y48873D01*
Y49322D01*
X-64128D01*
Y49770D01*
Y50219D01*
Y50668D01*
X-63679D01*
Y51116D01*
X-63231D01*
Y51565D01*
X-62782D01*
Y52014D01*
X-62333D01*
Y52462D01*
X-61885D01*
Y52911D01*
X-60987D01*
Y53359D01*
Y53808D01*
D02*
G37*
G36*
X-18367Y48425D02*
X-19265D01*
Y47976D01*
X-19713D01*
Y47527D01*
X-19265D01*
Y47078D01*
X-19713D01*
Y46630D01*
X-20162D01*
Y46181D01*
Y45733D01*
Y45284D01*
X-20610D01*
Y44835D01*
X-21059D01*
Y44387D01*
Y43938D01*
X-21508D01*
Y43489D01*
X-21956D01*
Y43041D01*
X-22405D01*
Y42592D01*
X-23302D01*
Y42144D01*
Y41695D01*
Y41246D01*
X-22854D01*
Y41695D01*
X-20162D01*
Y41246D01*
X-19713D01*
Y40798D01*
Y40349D01*
Y39900D01*
X-20162D01*
Y39452D01*
Y39003D01*
X-20610D01*
Y38554D01*
Y38106D01*
Y37657D01*
Y37209D01*
X-20162D01*
Y36760D01*
X-17470D01*
Y37209D01*
X-17021D01*
Y37657D01*
X-16573D01*
Y38106D01*
Y38554D01*
Y39003D01*
X-16124D01*
Y39452D01*
X-16573D01*
Y39900D01*
X-16124D01*
Y40349D01*
Y40798D01*
Y41246D01*
X-15675D01*
Y41695D01*
Y42144D01*
Y42592D01*
X-15227D01*
Y43041D01*
Y43489D01*
Y43938D01*
Y44387D01*
Y44835D01*
Y45284D01*
Y45733D01*
X-14778D01*
Y46181D01*
Y46630D01*
X-15227D01*
Y47078D01*
X-16124D01*
Y46630D01*
X-16573D01*
Y46181D01*
Y45733D01*
Y45284D01*
X-17021D01*
Y44835D01*
Y44387D01*
Y43938D01*
Y43489D01*
Y43041D01*
Y42592D01*
X-17470D01*
Y42144D01*
Y41695D01*
X-18816D01*
Y42144D01*
Y42592D01*
Y43041D01*
Y43489D01*
Y43938D01*
Y44387D01*
Y44835D01*
Y45284D01*
Y45733D01*
Y46181D01*
Y46630D01*
Y47078D01*
X-18367D01*
Y47527D01*
Y47976D01*
Y48425D01*
D02*
G37*
G36*
X-69960Y39003D02*
X-70857D01*
Y38554D01*
Y38106D01*
X-70409D01*
Y37657D01*
X-69960D01*
Y37209D01*
Y36760D01*
X-69511D01*
Y36311D01*
X-68614D01*
Y35863D01*
X-67268D01*
Y36311D01*
Y36760D01*
Y37209D01*
X-68614D01*
Y37657D01*
X-69063D01*
Y38106D01*
X-69511D01*
Y38554D01*
X-69960D01*
Y39003D01*
D02*
G37*
%LPD*%
G36*
X-27340Y50219D02*
X-26891D01*
Y49770D01*
Y49322D01*
Y48873D01*
Y48425D01*
Y47976D01*
X-27340D01*
Y47527D01*
X-27789D01*
Y47078D01*
X-30032D01*
Y47527D01*
X-30480D01*
Y47976D01*
Y48425D01*
Y48873D01*
Y49322D01*
Y49770D01*
Y50219D01*
X-30032D01*
Y50668D01*
X-27340D01*
Y50219D01*
D02*
G37*
G36*
X-55155Y48873D02*
X-54707D01*
Y48425D01*
X-54258D01*
Y47976D01*
Y47527D01*
Y47078D01*
Y46630D01*
X-54707D01*
Y46181D01*
Y45733D01*
X-55604D01*
Y45284D01*
X-58744D01*
Y45733D01*
Y46181D01*
X-59193D01*
Y46630D01*
Y47078D01*
Y47527D01*
Y47976D01*
X-58744D01*
Y48425D01*
X-58296D01*
Y48873D01*
X-57847D01*
Y49322D01*
X-55155D01*
Y48873D01*
D02*
G37*
D10*
X189520Y-23790D02*
G03*
X189520Y-23790I-1000J0D01*
G01*
D11*
X12700Y107950D02*
Y158874D01*
X-36830Y107950D02*
X12700D01*
X-36830D02*
Y159276D01*
X-25200Y159181D02*
X-200Y158979D01*
X12700Y158874D01*
X-36830Y159276D02*
X-25200Y159181D01*
X-36830Y124460D02*
X-20320Y107950D01*
X130570Y78560D02*
Y129484D01*
X81040Y78560D02*
X130570D01*
X81040D02*
Y129886D01*
X92670Y129791D02*
X117670Y129588D01*
X130570Y129484D01*
X81040Y129886D02*
X92670Y129791D01*
X81040Y95070D02*
X97550Y78560D01*
X-147320Y-133294D02*
Y-82370D01*
X-97790D01*
Y-133696D02*
Y-82370D01*
X-134420Y-133399D02*
X-109420Y-133602D01*
X-147320Y-133294D02*
X-134420Y-133399D01*
X-109420Y-133602D02*
X-97790Y-133696D01*
X-114300Y-82370D02*
X-97790Y-98880D01*
X-29450Y-175204D02*
Y-124280D01*
X20080D01*
Y-175606D02*
Y-124280D01*
X-16550Y-175308D02*
X8450Y-175511D01*
X-29450Y-175204D02*
X-16550Y-175308D01*
X8450Y-175511D02*
X20080Y-175606D01*
X3570Y-124280D02*
X20080Y-140790D01*
X76200Y-132204D02*
Y-81280D01*
X125730D01*
Y-132606D02*
Y-81280D01*
X89100Y-132309D02*
X114100Y-132512D01*
X76200Y-132204D02*
X89100Y-132309D01*
X114100Y-132512D02*
X125730Y-132606D01*
X109220Y-81280D02*
X125730Y-97790D01*
X-100330Y80010D02*
Y130934D01*
X-149860Y80010D02*
X-100330D01*
X-149860D02*
Y131336D01*
X-138230Y131242D02*
X-113230Y131039D01*
X-100330Y130934D01*
X-149860Y131336D02*
X-138230Y131242D01*
X-149860Y96520D02*
X-133350Y80010D01*
X5380Y-78740D02*
Y-60960D01*
X-11130D02*
X5380D01*
X-11130Y-78740D02*
Y-60960D01*
Y-78740D02*
X5380D01*
X-141735Y61972D02*
X-144275Y64511D01*
X-149353D01*
X-151892Y61972D01*
Y51815D01*
X-149353Y49276D01*
X-144275D01*
X-141735Y51815D01*
Y56894D01*
X-146814D01*
X-151384Y-35565D02*
Y-45722D01*
X-146306Y-50800D01*
X-141227Y-45722D01*
Y-35565D01*
X-144529Y14981D02*
X-149607D01*
X-152146Y12442D01*
Y2285D01*
X-149607Y-254D01*
X-144529D01*
X-141989Y2285D01*
Y12442D01*
X-144529Y14981D01*
X171704Y-42421D02*
X181861D01*
X176782Y-37342D02*
Y-47499D01*
X169418Y24890D02*
X179575D01*
X86103Y70354D02*
X83563Y72893D01*
X78485D01*
X75946Y70354D01*
Y60197D01*
X78485Y57658D01*
X83563D01*
X86103Y60197D01*
X137411Y74163D02*
X127254D01*
Y58928D01*
X137411D01*
X127254Y66546D02*
X132332D01*
X24130Y74671D02*
Y59436D01*
X31748D01*
X34287Y61975D01*
Y64514D01*
X31748Y67053D01*
X24130D01*
X31748D01*
X34287Y69593D01*
Y72132D01*
X31748Y74671D01*
X24130D01*
D12*
X234520Y34210D02*
X237520D01*
X234520Y-41790D02*
X237520D01*
X208520Y34210D02*
X212520D01*
X208520Y-41790D02*
X212520D01*
X238020D02*
Y34210D01*
D13*
X-81116Y-8898D02*
X-98044D01*
Y-21594D01*
X-89580D01*
X-98044D01*
Y-34290D01*
X-72652Y-8898D02*
X-55724Y-34290D01*
Y-8898D02*
X-72652Y-34290D01*
X-47260D02*
Y-8898D01*
X-34564D01*
X-30333Y-13130D01*
Y-21594D01*
X-34564Y-25826D01*
X-47260D01*
X-38797D02*
X-30333Y-34290D01*
X-21869Y-8898D02*
Y-34290D01*
X-9173D01*
X-4941Y-30058D01*
Y-25826D01*
X-9173Y-21594D01*
X-21869D01*
X-9173D01*
X-4941Y-17362D01*
Y-13130D01*
X-9173Y-8898D01*
X-21869D01*
X3523D02*
X11987D01*
X7755D01*
Y-34290D01*
X3523D01*
X11987D01*
X24683D02*
Y-8898D01*
X41611Y-34290D01*
Y-8898D01*
X50075D02*
Y-34290D01*
X62771D01*
X67003Y-30058D01*
Y-13130D01*
X62771Y-8898D01*
X50075D01*
X75467D02*
X83931D01*
X79699D01*
Y-34290D01*
X75467D01*
X83931D01*
M02*
